<svg id="Capa_1" enable-background="new 0 0 512 512" height="512" viewBox="0 0 512 512" width="512" xmlns="http://www.w3.org/2000/svg"><g><path d="m232.947 288.162-38.179 2.694c-12.212-10.872-27.583-17.415-43.767-18.547-20.109-1.409-39.287 5.173-53.988 18.531-2.325 2.113-4.491 4.356-6.494 6.713-6.206-5.016-11.7-10.415-16.364-15.015-4.03-3.975-7.511-7.407-10.615-9.744-3.795-2.858-9.078-2.651-12.64.495-11.189 9.885-18.472 24.59-21.206 42.296-2.929-1.743-5.695-3.553-8.198-5.407-2.49-1.842-5.691-2.43-8.675-1.586-2.981.843-5.403 3.019-6.558 5.893-11.774 29.293-6.881 59.092 14.15 86.175 10.169 13.096 22.322 23.254 31.74 30.037-8.511 2.328-20.031 2.597-30.907 2.579-7.315 0-13.385 3.644-16.235 9.746-1.625 3.48-4.327 12.863 5.677 24.805 19.788 23.604 48.317 36.174 79.355 36.173 13.024 0 26.493-2.214 39.94-6.755 25.105-8.478 47.078-24.098 63.543-45.171 17.988-23.021 28.247-51.513 29.668-82.397.509-11.011-.235-21.439-2.215-31.067l21.244-35.326c1.922-3.196 1.906-7.197-.045-10.377-1.951-3.178-5.506-5.006-9.231-4.745zm-174.71 6.769c.605.594 1.229 1.209 1.868 1.84 5.189 5.118 11.858 11.689 19.684 17.805-2.609 5.824-4.46 12.012-5.472 18.455-6.75-1.078-16.079-3.97-25.594-7.955.674-9.018 2.94-20.735 9.514-30.145zm142.395 44.382c2.205 8.869 3.074 18.775 2.58 29.444-2.85 61.902-43.005 97.175-79.632 109.544-37.505 12.665-74.887 3.73-97.56-23.313-.528-.631-.956-1.208-1.3-1.724 21.381-.128 42.633-1.973 53.853-16.243 1.797-2.285 2.509-5.238 1.953-8.091-.557-2.852-2.327-5.321-4.851-6.764-11.464-6.555-64.329-39.733-54.445-88.362 18.47 10.667 42.885 19.634 58.52 19.633 1.957 0 3.78-.141 5.433-.436 4.674-.836 8.117-4.842 8.237-9.588.372-14.71 6.426-28.125 17.046-37.776 10.622-9.652 24.517-14.4 39.137-13.38 12.891.902 25.1 6.554 34.376 15.917 2.051 2.07 4.905 3.142 7.811 2.938l23.379-1.649-13.404 22.289c-1.365 2.27-1.772 4.99-1.133 7.561z"/><path d="m143.682 316.308c-5.523 0-10.001 4.476-10.001 9.997s4.478 9.997 10.001 9.997h.056c5.523 0 9.974-4.476 9.974-9.997s-4.507-9.997-10.03-9.997z"/><path d="m490.752 433.278c-10.814.023-22.385-.25-30.896-2.579 9.414-6.782 21.562-16.939 31.732-30.038 21.025-27.081 25.922-56.879 14.161-86.171-1.154-2.875-3.576-5.052-6.557-5.896-2.986-.845-6.187-.257-8.677 1.586-2.503 1.853-5.27 3.664-8.198 5.407-2.733-17.705-10.017-32.41-21.206-42.296-3.562-3.147-8.844-3.353-12.64-.495-3.104 2.337-6.585 5.769-10.615 9.744-4.664 4.6-10.158 9.999-16.364 15.015-2.003-2.357-4.169-4.6-6.494-6.713-14.701-13.358-33.884-19.943-53.988-18.531-16.185 1.132-31.556 7.675-43.767 18.547l-38.179-2.694c-3.719-.261-7.278 1.566-9.229 4.745-1.95 3.178-1.97 7.177-.05 10.374l21.226 35.339c-1.964 9.65-2.702 20.076-2.195 31.057 1.421 30.885 11.68 59.378 29.668 82.399 16.466 21.073 38.439 36.692 63.543 45.171 13.45 4.542 26.913 6.756 39.94 6.755 31.034-.001 59.569-12.572 79.359-36.174 10.001-11.939 7.3-21.322 5.675-24.802-2.852-6.107-8.921-9.75-16.249-9.75zm-38.848-136.507c.64-.631 1.264-1.246 1.868-1.84 6.575 9.409 8.84 21.127 9.514 30.145-9.515 3.985-18.844 6.877-25.594 7.954-1.012-6.443-2.863-12.631-5.472-18.455 7.825-6.115 14.494-12.686 19.684-17.804zm34.088 158.215c-22.678 27.047-60.062 35.981-97.563 23.316-36.628-12.369-76.782-47.642-79.632-109.547-.492-10.641.369-20.556 2.559-29.469.63-2.562.221-5.269-1.138-7.531l-13.391-22.295 23.392 1.65c2.899.203 5.76-.868 7.811-2.938 9.277-9.363 21.485-15.016 34.376-15.917 14.62-1.026 28.514 3.729 39.137 13.38 10.62 9.651 16.674 23.066 17.046 37.776.12 4.746 3.563 8.753 8.237 9.588 14.858 2.655 43.167-7.192 63.949-19.194 9.872 48.641-42.978 81.806-54.44 88.36-2.524 1.443-4.295 3.912-4.851 6.764-.556 2.853.156 5.806 1.953 8.091 11.222 14.275 32.478 16.116 53.854 16.243-.345.518-.772 1.093-1.299 1.723z"/><path d="m368.328 316.308h-.056c-5.523 0-9.974 4.476-9.974 9.997s4.506 9.997 10.03 9.997 10.001-4.476 10.001-9.997-4.478-9.997-10.001-9.997z"/><path d="m319.902 251.042c1.938 1.87 4.442 2.804 6.946 2.804 2.503 0 5.007-.934 6.944-2.803l60.063-57.929c.087-.083.172-.168.256-.255 20.227-20.97 20.227-55.091-.009-76.071-6-6.205-13.497-10.375-21.793-12.25 4.66-27.442-3.678-55.54-23.022-75.598-13.817-14.305-32.785-21.723-53.361-20.875-19.513.8-38.356 8.807-53.055 22.546l-.991.928c-1.27 1.188-2.63 2.462-3.757 3.463-1.122-.999-2.476-2.27-3.739-3.455l-1.001-.939c-14.713-13.737-33.557-21.743-53.062-22.543-20.591-.846-39.534 6.569-53.353 20.876-32.37 33.524-32.368 88.048.004 121.543.079.082.161.164.244.244l12.269 11.847c1.941 1.875 4.445 2.807 6.947 2.807 2.618 0 5.232-1.021 7.194-3.051 3.837-3.971 3.728-10.301-.245-14.137l-12.14-11.723c-24.858-25.847-24.817-67.819.118-93.643 19.822-20.521 54.977-19.448 78.358 2.382l.977.916c6.515 6.112 10.819 10.15 17.423 10.15 6.599 0 10.91-4.035 17.434-10.142l.981-.917c23.378-21.85 58.531-22.921 78.36-2.394 15.657 16.235 21.931 39.378 17.056 61.634-9.244 1.91-17.943 6.383-25.088 13.015-9.204-8.546-20.991-13.526-33.209-14.028-13.125-.544-25.208 4.203-34.04 13.353-20.227 20.971-20.227 55.092 0 76.062.084.086.168.171.254.254l8.217 7.928-29.953 28.91-21.318-20.576c-3.974-3.835-10.305-3.724-14.141.247-3.837 3.972-3.726 10.301.247 14.137l28.265 27.282c1.938 1.871 4.442 2.805 6.947 2.805 2.504 0 5.009-.935 6.947-2.805l37.407-36.104zm-45.891-120.364c11.041-11.444 29.013-8.119 39.327 1.528l.583.545c4.003 3.751 7.461 6.99 12.94 6.99 5.48 0 8.938-3.239 12.941-6.99l.582-.545c10.307-9.638 28.278-12.959 39.327-1.53 12.807 13.277 12.845 34.856.117 48.184l-52.978 51.096-52.954-51.095c-12.731-13.328-12.691-34.907.115-48.183z"/><path d="m178.157 195.994c2.59 0 5.179-1.002 7.141-2.997 3.872-3.938 3.802-10.282-.137-14.152-3.94-3.871-10.274-3.813-14.143.123-3.873 3.938-3.817 10.268.122 14.138l.028.028c1.944 1.91 4.466 2.86 6.989 2.86z"/></g></svg>