<svg height="511pt" viewBox="-1 0 511 511.99993" width="511pt" xmlns="http://www.w3.org/2000/svg"><path d="m285.824219 207.777344c-.058594 7.890625-.699219 14.246094-1.179688 17.882812-.222656 1.660156-2.023437 2.582032-3.503906 1.800782-84.832031-44.769532-53.800781-109.5-53.800781-109.5 5.46875 1.371093 10.441406 3.144531 14.957031 5.257812 37.792969 17.6875 43.726563 59.113281 43.527344 84.558594zm0 0" fill="#8078bf"/><path d="m285.824219 207.777344c-44.238281-29.410156-46.742188-64.519532-43.527344-84.558594 37.792969 17.6875 43.726563 59.113281 43.527344 84.558594zm0 0" fill="#958fca"/><path d="m219.933594 219.84375c-6.027344 7.40625-11.601563 12.84375-14.695313 15.683594-1.242187 1.132812-3.214843.671875-3.84375-.871094-23.117187-56.851562-6.628906-97.664062 25.828125-116.652344 1-.441406 2.210938-.933594 3.601563-1.441406 1.984375 2.761719 3.734375 5.535156 5.265625 8.285156 5.257812 9.441406 7.9375 18.78125 8.75 27.800782 2.433594 27.242187-12.222656 51.585937-24.90625 67.195312zm0 0" fill="#aba6d5"/><path d="m219.933594 219.84375c-13.894532-42.507812-4.816406-75.074219 16.15625-94.996094 5.257812 9.441406 7.9375 18.78125 8.75 27.800782 2.433594 27.242187-12.222656 51.585937-24.90625 67.195312zm0 0" fill="#c1bde0"/><path d="m335.148438 169.40625c-12.816407 2.585938-59.957032 9.78125-90.308594-16.757812-8.808594-7.695313-16.207032-18.238282-20.921875-32.5625 2.960937-2.015626 3.664062-2.335938 6.90625-3.523438 3.703125-1.34375 8.710937-2.824219 14.6875-3.726562 21.871093-3.28125 56.71875 1.140624 87.761719 47.621093 1.152343 1.722657 2.292968 3.496094 3.433593 5.335938.882813 1.421875.082031 3.285156-1.558593 3.613281zm0 0" fill="#aba6d5"/><path d="m333.273438 160.457031c-20.039063.992188-48.019532-1.609375-68.410157-19.441406-7.890625-6.886719-14.636719-16.054687-19.351562-28.179687 21.871093-3.28125 56.71875 1.140624 87.761719 47.621093zm0 0" fill="#c1bde0"/><path d="m455.558594 32.601562c-.863282 4.703126-1.921875 9.027344-3.15625 12.984376-10.089844 32.421874-31.390625 40.753906-44.507813 42.703124-6.574219.980469-11.089843.351563-11.089843.351563-2.835938-44.367187 44.4375-56.070313 56.480468-58.332031 1.351563-.25 2.523438.929687 2.273438 2.292968zm0 0" fill="#8078bf"/><path d="m452.402344 45.585938c-10.089844 32.421874-31.390625 40.753906-44.507813 42.703124 4.574219-26.035156 28.683594-37.757812 44.507813-42.703124zm0 0" fill="#958fca"/><path d="m408.226562 81.792969c-2.5625 3.023437-5.667968 5.90625-9.371093 8.597656-1.980469-1.578125-2.113281-1.691406-3.652344-3.691406-7.699219-9.953125-23.304687-38.390625 9.488281-77.082031.890625-1.054688 2.554688-.894532 3.214844.320312 1.390625 2.539062 3.613281 6.925781 5.734375 12.492188 5.90625 15.507812 10.953125 40.152343-5.414063 59.363281zm0 0" fill="#aba6d5"/><path d="m408.226562 81.792969c-6.425781-11.683594-12.023437-32.554688 5.414063-59.363281 5.90625 15.507812 10.953125 40.152343-5.414063 59.363281zm0 0" fill="#c1bde0"/><path d="m133.109375 318.097656c-18.320313.769532-71.417969-1.410156-81.015625-51.304687 0 0 4.824219-1.992188 12.441406-2.882813 16.566406-1.953125 46.371094 1.289063 68.722656 41.453125 1.191407 2.113281 2.34375 4.324219 3.476563 6.648438 1.332031 2.734375-.570313 5.957031-3.625 6.085937zm0 0" fill="#8078bf"/><path d="m133.257812 305.363281c-20.960937-.761719-56.621093-7.277343-68.722656-41.453125 16.566406-1.953125 46.371094 1.289063 68.722656 41.453125zm0 0" fill="#958fca"/><path d="m92.644531 329.050781c-.207031 9.808594-1.71875 18.359375-2.933593 23.765625-.667969 2.980469-4.183594 4.292969-6.65625 2.472656-38.050782-27.980468-44.316407-61.808593-30.921876-88.597656 0-.039062.257813-.417968.589844-.878906.5-.710938 1.152344-1.59375 1.230469-1.703125 11.375 4.457031 19.5625 10.902344 25.410156 18.359375 11 14.074219 13.613281 31.765625 13.28125 46.582031zm0 0" fill="#aba6d5"/><path d="m92.644531 329.050781c-.878906.007813-1.789062-.25-2.582031-.84375-26.40625-19.417969-37.511719-41.652343-37.339844-62.394531.5-.710938 1.152344-1.59375 1.230469-1.703125 11.375 4.457031 19.5625 10.902344 25.410156 18.359375 11 14.074219 13.613281 31.765625 13.28125 46.582031zm0 0" fill="#c1bde0"/><path d="m118.945312 485.339844c-46.359374-10.523438-41.324218-46.742188-41.324218-46.742188 4.734375-.300781 9 .101563 12.851562 1.050782 18.199219 4.457031 27.140625 21.054687 31.335938 33.246093.929687 2.714844 1.628906 5.207031 2.140625 7.296875.75 3.035156-1.953125 5.835938-5.003907 5.148438zm0 0" fill="#8078bf"/><path d="m121.808594 472.894531c-22.476563-8.007812-29.351563-23.003906-31.335938-33.246093 18.199219 4.457031 27.140625 21.054687 31.335938 33.246093zm0 0" fill="#958fca"/><path d="m91.726562 489.292969c-1.28125 3.722656-2.714843 6.96875-3.957031 9.488281-1.410156 2.855469-5.304687 3.203125-7.214843.664062-18.140626-24.046874-15.980469-46.113281-3.035157-60.757812.230469-.230469 1.222657-1.03125 1.671875-1.371094 1.84375 1.363282 3.484375 2.78125 4.957032 4.246094 3.792968 3.773438 6.445312 7.847656 8.207031 12.050781 5.195312 12.324219 2.804687 25.71875-.628907 35.679688zm0 0" fill="#aba6d5"/><path d="m91.726562 489.292969c-12.40625-17.917969-13.585937-34.597657-7.578124-47.730469 3.792968 3.773438 6.445312 7.847656 8.207031 12.050781 5.195312 12.324219 2.804687 25.71875-.628907 35.679688zm0 0" fill="#c1bde0"/><path d="m137.5625 449.539062c-9.308594 4.445313-28.359375 11.394532-45.207031 4.074219-5.804688-2.511719-11.363281-6.738281-16.15625-13.355469.300781-.367187 1.140625-1.390624 1.371093-1.621093 2.453126-2.109375 5.09375-3.933594 7.90625-5.40625 13.046876-6.847657 29.742188-6.394531 47.652344 5.398437 1.722656 1.121094 3.445313 2.363282 5.1875 3.703125 2.511719 1.953125 2.121094 5.835938-.753906 7.207031zm0 0" fill="#aba6d5"/><path d="m133.128906 438.628906c-10.148437 3.703125-24.636718 6.675782-37.769531.960938-3.414063-1.484375-6.746094-3.542969-9.882813-6.359375 13.046876-6.847657 29.742188-6.394531 47.652344 5.398437zm0 0" fill="#c1bde0"/><path d="m476.050781 81.78125c-2.90625 2.40625-5.746093 4.535156-8.519531 6.429688-28.121094 19.167968-49.835938 13.414062-61.886719 6.695312-2.792969-1.539062-5.066406-3.152344-6.789062-4.515625-1.980469-1.578125-2.113281-1.691406-3.652344-3.691406 6.015625-8.089844 12.921875-13.226563 20.140625-16.269531 24.40625-10.261719 52.234375 3.515624 60.433594 8.140624 1.203125.671876 1.332031 2.332032.273437 3.210938zm0 0" fill="#aba6d5"/><path d="m467.53125 88.210938c-28.121094 19.167968-49.835938 13.414062-61.886719 6.695312 4.324219-4.082031 8.949219-7.007812 13.703125-9.007812 17-7.148438 35.648438-2.632813 48.183594 2.3125zm0 0" fill="#c1bde0"/><path d="m145.5625 256.550781c-10.261719 9.359375-36.808594 30.183594-66.199219 25.917969-9.371093-1.351562-19.03125-5.265625-28.550781-12.914062.46875-1.109376.917969-2.0625 1.320312-2.863282 0-.007812.007813-.019531.019532-.039062 2.773437-4.214844 6.015625-8.046875 9.71875-11.402344 15.988281-14.554688 40.40625-20.382812 71.058594-10.160156 3.734374 1.242187 7.558593 2.722656 11.472656 4.453125 2.800781 1.242187 3.421875 4.945312 1.160156 7.007812zm0 0" fill="#aba6d5"/><path d="m132.929688 245.089844c-13.195313 9.199218-32.65625 18.859375-53.566407 15.828125-5.757812-.832031-11.625-2.625-17.492187-5.667969 15.988281-14.554688 40.40625-20.382812 71.058594-10.160156zm0 0" fill="#c1bde0"/><path d="m509.09375 117.261719c-2.179688-3.527344-6.808594-4.621094-10.335938-2.4375-3.617187 1.667969-24.78125 19.210937-58.199218 17.699219-22.402344-1.015626-44.175782-8.484376-59.441406-15.121094 3.324218-11.09375 8.929687-17.136719 13.984374-20.421875 21.761719 16.480469 53.75 18.296875 87.984376-11.320313 3.816406-3.304687 3.328124-9.300781-.859376-11.996094-.839843-.539062-12.503906-7.90625-28.261718-11.910156 4.105468-8.128906 7.46875-18.199218 9.480468-30.703125.789063-4.996093-3.425781-9.269531-8.367187-8.640625-.652344.078125-15.296875 2.023438-30.585937 9.691406-3.34375-13.875-9.378907-24.808593-11.429688-28.292968-2.550781-4.492188-8.746094-5.128906-12.164062-1.28125-16.507813 18.660156-24.476563 37.5-23.675782 56.011718.5 11.503907 4.40625 20.703126 8.109375 26.949219-6.988281 5.042969-13.722656 13.101563-17.898437 25.410157-6.042969-3.136719-10.90625-6.164063-21.300782-11.441407-82.964843-42.105469-163.1875-57.847656-242.4375-9.171875 6.910157-37.511718-18.769531-73.796875-56.964843-79.632812-4.101563-.625-7.929688 2.1875-8.554688 6.285156-.625 4.101562 2.1875 7.929688 6.285157 8.558594 29.089843 4.445312 49.136718 31.726562 44.691406 60.816406-3.417969 22.371094-24.453125 37.929688-46.9375 34.492188-17.144532-2.617188-28.960938-18.695313-26.339844-35.839844 3.023438-19.792969 28.214844-26.726563 38.371094-12.90625 4.113281 5.597656 4.859375 13.984375.242187 19.25-3.808593-7.179688-12.910156-9.011719-19.175781-4.40625-9.4375 6.933594-5.464844 21.667968 5.675781 23.367187 14.964844 2.285157 29-8.027343 31.285157-22.992187 2.703124-17.683594-9.484376-34.265625-27.167969-36.96875-21.078125-3.222656-40.851563 11.304687-44.074219 32.386718-3.996094 26.152344 14.894531 52.472657 45.4375 53.566407-51.425781 48.542969-47.121094 125.464843-23.265625 192.0625 20.972656 58.550781 21.671875 135.109375-9.691406 171.246093-4.238281 4.882813-.699219 12.429688 5.664062 12.429688 2.101563 0 4.191407-.875 5.675781-2.585938 19.738282-22.746093 26.296876-55.285156 27.871094-82.488281.460938.214844 10.617188 2.199219 16.429688 10.191407-12.136719 16.546874-15.359375 43.1875 9.808594 72.289062 3.253906 3.75 9.265624 3.378906 11.992187-.863281.429687-.667969 5.988281-9.457031 9.359375-21.59375 9.800781 4.628906 22.371094 7.097656 24.910156 7.097656 4.542969 0 8.015625-4.003906 7.445313-8.457031-.070313-.511719-1.539063-11.613282-7.207031-23.605469 12.242187-3.222656 21.164062-8.71875 21.832031-9.140625 4.242187-2.660156 4.746093-8.664062.992187-11.992188-26.367187-23.34375-50.964844-22.855468-67.753906-13.425781-10.242188-13.164062-26.636719-15.527343-27.390625-15.835937-.21875-72.105469-24.148437-90.285156-30.707031-150.511719 6.210937 5.902344 12.773437 9.660156 19.007812 11.914063-11.996094 36.683593 9.769532 70.089843 42.515625 92.105468 4.109375 2.773438 9.828125.867188 11.351563-3.960937.378906-1.191407 5.574218-18.109375 4.824218-38.492188 13.914063 3.253907 30.339844 3.703125 40.15625 2.441407 4.972657-.636719 7.9375-5.882813 5.925782-10.460938-6.457032-14.726562-13.855469-25.808594-21.515625-34.148438 18.03125-9.476562 30.082031-22.34375 30.863281-23.191406 3.40625-3.703125 2.28125-9.632812-2.191406-11.824218-11.402344-5.636719-22.625-9.5-33.335938-11.472657-4.074218-.75-7.988281 1.953125-8.738281 6.035157-.75 4.074218 1.941406 7.988281 6.027344 8.742187 6.203125 1.140625 12.660156 3.03125 19.277343 5.644531-12.328124 10.265625-27.921874 19.210938-44.003906 20.84375-.011718.007813-.011718.007813-.023437 0-11.097657 1.210938-21.875-1.351562-31.8125-7.757812 3.40625-4.421875 7.480469-8.3125 12.351562-11.503906h.011719c5.175781-3.382813 10.980469-5.804688 17.320312-7.1875 4.050782-.882813 6.617188-4.886719 5.734376-8.929688-.882813-4.054688-4.886719-6.628906-8.929688-5.746094-16.066406 3.503906-29.53125 12.191406-39.171875 25.246094-8.136719-2.433594-18.425781-8.835938-26.765625-24.765625.867188-29.492187 9.347656-57.671875 28.285156-79.828125-3.875 55.523438 70.257813 86.429688 112.992188 43.695312 2.929687-2.933593 2.929687-7.6875 0-10.617187-2.933594-2.933594-7.6875-2.933594-10.617188 0-20.808594 20.804687-54.664062 20.804687-75.472656 0-16.058594-16.0625-16.058594-42.195313 0-58.253906 12.261719-12.261719 32.214844-12.261719 44.480469 0 9.222656 9.226562 9.222656 24.234375 0 33.460937-9.695313 9.691406-25.683594 4.378906-27.988281-6.105468 8.035156 1.191406 14.917968-5.050782 14.917968-12.84375 0-7.179688-5.820312-13-13-13-10.480468 0-17.234375 12.695312-17.234375 23.152343 0 7.332031 2.855469 14.226563 8.042969 19.414063 6.128906 6.125 14.273438 9.5 22.9375 9.5 30.511719 0 46.519531-40.621094 22.941406-64.195313-6.8125-6.816406-15.375-11.238281-24.667968-12.882812 31.691406-20.574219 54.09375-25.902344 83.175781-30.117188 20.800781 12.203125 28.117187 26.5 30.378906 37.339844-17.5 11.191406-29.421875 27.738281-34.578125 48.039063-5.9375 23.4375-2.613281 50.136718 9.878906 79.355468 1.972656 4.605469 7.8125 6.03125 11.695313 2.835938 1.199219-.992188 18.621093-15.597656 31.453125-37.921875 9.851562 10.492187 23.394531 20.753906 41.816406 30.074219 4.410156 2.246093 9.847656-.367188 10.769531-5.335938.039063-.242188 1.070313-5.898438 1.5625-14.617188.230469-4.132812-2.933593-7.679687-7.078125-7.917968-4.132812-.210938-7.679687 2.933594-7.917968 7.078125-.039063.75-.089844 1.480469-.140626 2.179687-14.265624-8.347656-24.535156-17.246094-31.863281-26.148437 2.992188-7.464844 5.195313-15.496094 6.085938-23.945313 6.789062 3.894532 14.355469 6.917969 22.59375 9.039063.851562 3.335937 1.550781 6.820312 2.101562 10.453125.621094 4.105468 4.445313 6.917968 8.550781 6.296875 4.105469-.632813 6.917969-4.453125 6.285157-8.558594-.269531-1.792969-.578125-3.542969-.917969-5.277344 17.171875 1.902344 36.257812.261719 49.542969-3.003906 4.832031-1.242187 7.160156-6.796875 4.582031-11.121094-6.894531-11.570312-14.433594-21.644531-22.421875-29.941406-2.875-2.984375-7.628906-3.074219-10.621094-.199219-2.984375 2.882813-3.074219 7.628906-.203125 10.621094 5.027344 5.203125 9.871094 11.242188 14.488282 18.007812-25.273438 3.554688-54.351563 1.1875-74.191407-14.523437v-.011719c-6.027343-4.644531-11.785156-11.398437-16.078125-19.601562 0-.007813 0-.007813 0-.007813-.8125-1.441406-1.921875-3.894531-2.613281-5.515625.605469-.152344 10.160156-4.15625 23.496094-4.15625 11.484375 0 22.625 2.941406 33.125 8.738282 3.636719 2.011718 8.199219.691406 10.203125-2.933594 2-3.632813.691406-8.199219-2.945313-10.210938-20.03125-11.0625-41.929687-13.277344-62.625-7.585937-2.375-9.199219-7.839843-20.984375-20.113281-32.253907 25.316406 1.292969 68.078125 8.734376 124.933594 37.589844 14.578125 7.402344 54.183594 32.574219 100.539062 34.675782 38.558594 1.757812 62.882813-18.097657 66.777344-19.929688 3.527344-2.179688 4.617188-6.804688 2.4375-10.332031zm-82.359375-69.296875c6.003906-3.578125 12.800781-6.320313 19.542969-8.257813-2.132813 7.9375-4.945313 14.375-8.148438 19.59375-3.925781-.203125-7.960937-.082031-12.011718.488281.578124-3.792968.789062-7.738281.617187-11.824218zm-5.863281 28.402344c13.898437-4.667969 29.988281-1.089844 43.496094 4.894531-16.09375 11.265625-34.605469 16.691406-52.296876 8.511719 8.417969-12.054688 7.726563-11.320313 8.800782-13.40625zm-15.75-55.128907c9.125 20.824219 10.523437 43.378907-5.503906 58.753907-3.234376-4.925782-5.460938-9.875-6.617188-15.949219-2.0625-10.851563-.378906-25.394531 12.121094-42.804688zm-302.285156 450.105469c.089843-2.414062.03125-4.875-.21875-7.359375 2.457031.285156 4.777343.367187 7.226562.3125 2.421875 4.191406 4.144531 8.527344 5.347656 12.300781-4.636718-1.402344-8.761718-3.152344-12.355468-5.253906zm26.277343-26.378906c-14.671875 5.664062-30.445312 6.992187-42.011719-3.652344-.023437-.121094-.042968-.230469-.070312-.351562 13.539062-8.394532 28.804688-4.800782 42.082031 4.003906zm-49.242187 2.992187c10.738281 11.632813 9.375 27.691407 3.445312 42.367188-8.726562-13.476563-12.148437-28.960938-3.445312-42.367188zm29.984375-161.164062c6.15625 5.789062 12.203125 13.546875 17.769531 23.90625-9.796875-.027344-19.9375-1.257813-29.394531-4.09375-1.148438-5.476563-2.871094-10.980469-5.355469-16.296875 5.90625-.492188 11.605469-1.753906 16.980469-3.515625zm-55.210938-5.433594c6.832031 4.101563 13.972657 6.753906 20.453125 7.976563 10.96875 15.929687 11.621094 37.875 8.289063 56.742187-20.339844-16.320313-35.074219-39.316406-28.742188-64.71875zm182.898438-125.214844c-.820313 21.21875-6.640625 42.289063-31.925781 68.492188-11.800782-33.402344-11.582032-69.957031 14.90625-92.667969 4.085937 9 9.792968 17.3125 17.019531 24.175781zm0 0"/></svg>