<?xml version="1.0" encoding="iso-8859-1"?>
<!-- Generator: Adobe Illustrator 16.0.0, SVG Export Plug-In . SVG Version: 6.00 Build 0)  -->
<!DOCTYPE svg PUBLIC "-//W3C//DTD SVG 1.1//EN" "http://www.w3.org/Graphics/SVG/1.1/DTD/svg11.dtd">
<svg version="1.1" id="Capa_1" xmlns="http://www.w3.org/2000/svg" xmlns:xlink="http://www.w3.org/1999/xlink" x="0px" y="0px"
	 width="191.686px" height="191.686px" viewBox="0 0 191.686 191.686" style="enable-background:new 0 0 191.686 191.686;"
	 xml:space="preserve">
<g>
	<path d="M185.43,88.193c-4.261-4.762-10.235-7.394-16.812-7.414c-0.031,0-0.068,0-0.1,0c-13.3,0-20.926,8.095-27.597,17.091
		c-1.582,1.933-4.608,4.517-8.532,2.302c-2.32-1.303-3.143-4.256-1.846-6.578c0.971-1.728,3.186-2.339,4.894-1.371
		c1.239,0.706,1.683,2.294,0.992,3.541c-0.222,0.4-0.586,0.669-1.019,0.81c-0.174-0.934-1.033-1.582-1.978-1.44
		c-0.97,0.134-1.635,1.036-1.481,2.009c0.011,0.1,0.116,0.14,0.132,0.242c-0.116,0.557,0.058,1.129,0.559,1.419
		c1.039,0.588,2.258,0.751,3.438,0.408c1.16-0.327,2.136-1.078,2.716-2.136c1.445-2.555,0.527-5.782-2.02-7.225
		c-3.027-1.695-6.866-0.622-8.574,2.397c-2.03,3.623-0.749,8.213,2.857,10.243c1.44,0.802,2.88,1.202,4.341,1.202
		c0.479,0,0.949-0.115,1.418-0.189c-1.36,1.909-2.721,3.818-4.129,5.601c-3.133,3.934-5.827,7.235-8.438,9.761
		c-0.295,0.026-0.58,0.101-0.812,0.306c-5.421,5.095-11.084,5.78-15.899,1.94c-3.754-3-4.387-8.49-1.402-12.25
		c2.31-2.89,6.55-3.375,9.424-1.075c1.055,0.854,1.729,2.057,1.893,3.417c0.143,1.35-0.231,2.679-1.075,3.744
		c-0.602,0.76-1.45,1.191-2.342,1.34c0.111-0.322,0.2-0.654,0.2-1.013c0-1.593-1.286-2.885-2.884-2.885
		c-1.599,0-2.885,1.292-2.885,2.885c0,0.517,0.169,0.98,0.406,1.392c0.016,0.38,0.147,0.749,0.475,1.002
		c2.811,2.236,6.897,1.762,9.133-1.033c2.68-3.364,2.126-8.274-1.233-10.938c-4.05-3.243-9.978-2.562-13.21,1.487
		c-3.895,4.884-3.101,12.013,1.714,15.937c-2.131-1.013-4.014-2.51-5.445-4.514c-2.333-3.265-3.261-7.399-2.555-11.359
		c1.123-6.265,7.172-10.449,13.405-9.331c0.701,0.121,1.444-0.356,1.566-1.089c0.115-0.736-0.354-1.437-1.092-1.566
		c-0.633-0.113-1.255-0.113-1.894-0.146c0.338-0.287,0.712-0.562,1.023-0.88c5.021-5.094,4.313-13.668,4.282-14.041l-0.105-1.134
		l-1.14-0.092c0.006,0-8.886-0.669-13.979,4.488c-0.938,0.954-1.63,2.046-2.207,3.164c0.269-7.177,5.771-12.97,12.817-13.748
		c0.543,0.918,1.497,1.566,2.637,1.566c1.729,0,3.121-1.405,3.121-3.122c0-1.722-1.392-3.122-3.121-3.122
		c-1.313,0-2.432,0.833-2.88,1.999c-5.363,0.572-9.987,3.581-12.704,7.949V67.026c1.031-0.514,1.764-1.55,1.764-2.792
		c0-1.711-1.393-3.116-3.114-3.116c-1.724,0-3.111,1.405-3.111,3.116c0,1.237,0.73,2.278,1.762,2.792v11.119
		c-2.729-4.369-7.328-7.367-12.707-7.949c-0.448-1.166-1.566-1.999-2.89-1.999c-1.711,0-3.122,1.4-3.122,3.122
		c0,1.717,1.411,3.122,3.122,3.122c1.145,0,2.118-0.648,2.647-1.566c7.04,0.778,12.532,6.571,12.812,13.748
		c-0.578-1.118-1.268-2.21-2.207-3.164c-5.081-5.163-13.964-4.493-13.969-4.488l-1.147,0.092l-0.105,1.134
		c-0.04,0.361-0.751,8.936,4.282,14.041c0.306,0.319,0.651,0.567,0.992,0.841c-0.804,0-1.635,0.045-2.444,0.185
		c-0.741,0.129-1.237,0.83-1.091,1.566c0.118,0.733,0.814,1.221,1.566,1.089c6.23-1.14,12.274,3.056,13.402,9.325
		c0.707,3.95-0.221,8.096-2.56,11.365c-1.429,1.993-3.314,3.485-5.437,4.514c4.823-3.934,5.606-11.053,1.716-15.937
		c-3.251-4.065-9.168-4.73-13.212-1.497c-1.637,1.291-2.658,3.143-2.89,5.221c-0.237,2.066,0.346,4.103,1.659,5.737
		c1.068,1.36,2.613,2.215,4.353,2.404c1.738,0.2,3.434-0.284,4.789-1.371c0.335-0.253,0.458-0.611,0.475-0.997
		c0.237-0.416,0.412-0.88,0.412-1.396c0-1.593-1.292-2.885-2.89-2.885c-1.592,0-2.872,1.292-2.872,2.885
		c0,0.358,0.087,0.695,0.192,1.012c-0.923-0.158-1.743-0.601-2.341-1.339c-0.85-1.065-1.237-2.395-1.076-3.75
		c0.14-1.35,0.815-2.558,1.896-3.411c2.879-2.289,7.101-1.825,9.429,1.075c2.985,3.749,2.36,9.25-1.416,12.25
		c-4.833,3.839-10.471,3.159-15.902-1.935c-0.232-0.211-0.535-0.291-0.82-0.312c-2.61-2.536-5.294-5.816-8.435-9.761
		c-1.416-1.783-2.771-3.702-4.137-5.611c0.475,0.095,0.949,0.2,1.429,0.2c1.453,0,2.9-0.39,4.332-1.202
		c3.607-2.035,4.886-6.637,2.861-10.249c-1.701-3.029-5.54-4.082-8.569-2.392c-1.237,0.691-2.139,1.825-2.511,3.19
		c-0.377,1.366-0.205,2.809,0.491,4.034c0.59,1.047,1.55,1.809,2.71,2.136c1.168,0.321,2.365,0.19,3.436-0.408
		c0.52-0.285,0.675-0.857,0.562-1.408c0.032-0.108,0.119-0.146,0.14-0.253c0.129-0.974-0.53-1.875-1.49-2.01
		c-0.938-0.142-1.798,0.507-1.973,1.435c-0.435-0.135-0.793-0.409-1.025-0.81c-0.335-0.599-0.419-1.3-0.243-1.97
		c0.19-0.669,0.623-1.231,1.237-1.566c1.751-0.973,3.937-0.345,4.899,1.366c1.29,2.328,0.469,5.281-1.843,6.584
		c-3.931,2.204-6.961-0.358-8.543-2.307C44.084,88.879,36.458,80.79,23.165,80.79c-0.032,0-0.071,0-0.103,0
		c-6.592,0.021-12.548,2.653-16.809,7.415c-4.699,5.26-6.914,12.653-6.08,20.279c0.614,5.731,3.448,10.889,7.947,14.507
		c3.884,3.116,8.598,4.783,13.495,4.772c0.169,0,0.34-0.021,0.525-0.031c0.021,0,0.042,0.042,0.082,0.042
		c0.063,0,0.113-0.011,0.171-0.011c0.077-0.021,0.124-0.048,0.201-0.059c0.475-0.021,0.938-0.025,1.421-0.078
		c4.654-0.507,8.854-2.795,11.792-6.455c2.94-3.654,4.277-8.237,3.765-12.909c-0.859-7.837-7.929-13.524-15.796-12.68
		c-0.738,0.079-1.268,0.744-1.203,1.479c0.087,0.738,0.675,1.269,1.49,1.2c6.344-0.67,12.113,3.937,12.814,10.285
		c0.427,3.945-0.712,7.826-3.19,10.916c-0.454,0.564-0.994,1.045-1.503,1.54c1.376-2.826,1.803-6.265,1.049-9.793
		c-0.622-2.979-2.378-5.537-4.936-7.198c-2.565-1.666-5.611-2.23-8.599-1.592c-2.457,0.521-4.577,1.961-5.951,4.076
		c-1.365,2.104-1.83,4.614-1.305,7.061c0.427,2.036,1.624,3.776,3.359,4.91c1.749,1.139,3.844,1.534,5.88,1.097
		c1.701-0.354,3.175-1.366,4.126-2.821c0.749-1.16,0.981-2.489,0.907-3.839c0.011-0.069,0.042-0.116,0.042-0.169
		c0-0.084-0.042-0.137-0.042-0.222c-0.034-0.222,0.037-0.433-0.013-0.653c-0.021-0.096-0.114-0.133-0.15-0.222
		c-0.417-1.05-1.442-1.804-2.639-1.825c-1.593-0.021-2.9,1.245-2.927,2.838c-0.024,1.424,1.015,2.573,2.359,2.815
		c-0.551,0.733-1.292,1.266-2.199,1.456c-1.345,0.306-2.7,0.042-3.839-0.718c-1.144-0.738-1.911-1.877-2.193-3.206
		c-0.361-1.746-0.042-3.533,0.936-5.031c0.983-1.508,2.479-2.547,4.232-2.91c2.281-0.485,4.611-0.059,6.562,1.218
		c1.949,1.271,3.288,3.222,3.773,5.5c0.746,3.522,0.179,6.945-1.556,9.387c-1.445,2.03-3.691,3.312-6.473,3.786
		c-4.617,0.227-9.115-1.149-12.749-4.07c-3.937-3.164-6.415-7.679-6.961-12.699c-0.751-6.865,1.236-13.492,5.421-18.185
		c3.731-4.179,8.997-6.497,14.808-6.513c0.021,0,0.053,0,0.085,0c11.875,0,18.987,7.383,25.207,15.712
		c0.01,0.011,0,0.021,0.01,0.031c0.04,0.053,0.087,0.085,0.113,0.116c1.118,1.508,2.215,3.037,3.301,4.566
		c0.295,0.396,0.572,0.771,0.87,1.171c-2.139-0.411-4.337,0.042-6.362,1.382c-3.457,2.305-4.39,6.982-2.117,10.426
		c1.21,1.813,3.209,2.811,5.25,2.811c1.197,0,2.397-0.343,3.483-1.055c1.187-0.78,1.975-1.978,2.263-3.364
		c0.285-1.393,0.01-2.806-0.789-3.977c-1.376-2.062-4.164-2.626-6.249-1.244c-0.409,0.279-0.538,0.738-0.517,1.196
		c-0.044,0.133-0.163,0.217-0.179,0.364c-0.098,0.976,0.622,1.825,1.608,1.909c0.92,0.084,1.685-0.58,1.854-1.466
		c0.496,0.073,0.959,0.311,1.236,0.754c0.382,0.575,0.525,1.261,0.372,1.946c-0.129,0.675-0.535,1.255-1.107,1.65
		c-1.656,1.097-3.881,0.648-4.979-0.997c-1.463-2.204-0.852-5.21,1.35-6.671c3.937-2.6,7.312,0.079,8.949,1.914
		c0,0,0.016,0,0.016,0.011c0.042,0.053,0.074,0.11,0.114,0.153c7.678,9.671,14.33,18.003,25.573,16.289
		c4.493-0.686,8.435-3.132,11.135-6.887c0.406-0.569,0.707-1.213,1.036-1.824v10.82c0,0.749,0.602,1.351,1.35,1.351
		c0.751,0,1.35-0.602,1.35-1.351v-10.32c0.267,0.438,0.464,0.907,0.762,1.324c2.689,3.755,6.643,6.201,11.135,6.887
		c11.275,1.714,17.888-6.618,25.566-16.289c0.042-0.053,0.084-0.111,0.11-0.153c0-0.011,0-0.011,0.011-0.011
		c1.672-1.84,5.004-4.54,8.943-1.919c2.204,1.466,2.816,4.472,1.36,6.676c-1.107,1.646-3.332,2.094-4.978,0.997
		c-0.569-0.385-0.981-0.976-1.118-1.65c-0.121-0.686,0-1.371,0.38-1.946c0.295-0.443,0.759-0.681,1.239-0.754
		c0.169,0.886,0.943,1.55,1.856,1.466c0.976-0.084,1.688-0.938,1.608-1.909c-0.011-0.147-0.138-0.231-0.19-0.364
		c0.032-0.464-0.1-0.917-0.506-1.196c-2.072-1.382-4.873-0.808-6.255,1.244c-0.791,1.182-1.055,2.584-0.785,3.977
		c0.29,1.387,1.086,2.584,2.257,3.369c1.076,0.707,2.294,1.05,3.491,1.05c2.035,0,4.034-0.997,5.247-2.811
		c2.278-3.443,1.339-8.121-2.12-10.426c-2.025-1.34-4.208-1.782-6.354-1.371c0.285-0.4,0.569-0.786,0.865-1.182
		c1.086-1.529,2.193-3.048,3.312-4.566c0.031-0.042,0.079-0.074,0.116-0.116c0.01-0.011,0-0.021,0.01-0.031
		c6.223-8.33,13.332-15.712,25.207-15.712c0.026,0,0.059,0,0.09,0c5.807,0.016,11.063,2.333,14.803,6.513
		c4.182,4.693,6.165,11.32,5.416,18.185c-0.549,5.021-3.021,9.535-6.961,12.699c-3.645,2.921-8.169,4.287-12.751,4.07
		c-2.795-0.475-5.042-1.756-6.46-3.781c-1.735-2.441-2.315-5.869-1.556-9.392c0.484-2.278,1.824-4.229,3.775-5.5
		c1.93-1.271,4.24-1.683,6.555-1.218c1.746,0.363,3.259,1.402,4.225,2.91c0.985,1.487,1.297,3.275,0.938,5.031
		c-0.285,1.329-1.05,2.468-2.188,3.206c-1.134,0.76-2.494,1.013-3.839,0.718c-0.902-0.19-1.672-0.723-2.21-1.456
		c1.35-0.253,2.378-1.402,2.368-2.815c-0.026-1.593-1.329-2.858-2.933-2.838c-1.207,0.021-2.215,0.771-2.631,1.814
		c-0.043,0.095-0.132,0.137-0.153,0.242c-0.053,0.211,0.011,0.422-0.011,0.633c-0.011,0.09-0.047,0.148-0.047,0.232
		c0,0.068,0.031,0.116,0.036,0.18c-0.062,1.35,0.175,2.679,0.929,3.839c0.949,1.46,2.404,2.457,4.103,2.815
		c2.046,0.438,4.145,0.043,5.891-1.097c1.725-1.134,2.932-2.879,3.338-4.904c0.543-2.446,0.079-4.957-1.287-7.066
		c-1.371-2.109-3.49-3.554-5.959-4.081c-2.984-0.628-6.021-0.063-8.585,1.598c-2.558,1.661-4.313,4.213-4.936,7.198
		c-0.754,3.522-0.327,6.972,1.049,9.798c-0.527-0.496-1.049-0.98-1.503-1.54c-2.488-3.101-3.622-6.972-3.19-10.921
		c0.696-6.365,6.471-10.956,12.81-10.286c0.78,0.074,1.413-0.459,1.481-1.2c0.09-0.746-0.453-1.411-1.191-1.484
		c-7.963-0.88-14.939,4.838-15.794,12.691c-0.512,4.661,0.822,9.244,3.76,12.903c2.938,3.665,7.114,5.965,11.786,6.46
		c0.48,0.048,0.955,0.053,1.419,0.074c0.084,0.011,0.132,0.042,0.211,0.053c0.058,0.011,0.116,0.011,0.163,0.011
		c0.037,0,0.059-0.032,0.09-0.032c0.169,0,0.338,0.032,0.522,0.032c4.888,0,9.613-1.661,13.494-4.778
		c4.498-3.617,7.319-8.764,7.947-14.512C192.344,100.847,190.129,93.454,185.43,88.193z M101.741,85.375
		c3.148-3.198,8.264-3.679,10.652-3.715c-0.01,2.328-0.39,7.488-3.543,10.687c-3.148,3.196-8.267,3.684-10.658,3.715
		C98.198,93.738,98.585,88.584,101.741,85.375z M79.885,81.67c2.381,0.037,7.501,0.52,10.645,3.71s3.541,8.364,3.552,10.692
		c-2.381-0.037-7.499-0.53-10.647-3.716C80.296,89.172,79.896,84.004,79.885,81.67z"/>
</g>
<g>
</g>
<g>
</g>
<g>
</g>
<g>
</g>
<g>
</g>
<g>
</g>
<g>
</g>
<g>
</g>
<g>
</g>
<g>
</g>
<g>
</g>
<g>
</g>
<g>
</g>
<g>
</g>
<g>
</g>
</svg>
